<?xml version="1.0" ?><!DOCTYPE svg  PUBLIC '-//W3C//DTD SVG 1.1//EN'  'http://www.w3.org/Graphics/SVG/1.1/DTD/svg11.dtd'>
<svg  height="32px" id="Layer_1" style="enable-background:new 0 0 32 32;" version="1.1" viewBox="0 0 32 32" width="32px" xml:space="preserve" xmlns="http://www.w3.org/2000/svg" xmlns:xlink="http://www.w3.org/1999/xlink">
  <path transform="rotate(90 15.999999999999998,16.000000000000004) " id="svg_1" d="m28,14l-19.2,0l4.62,-4.62c0.394,-0.394 0.58,-0.864 0.58,-1.38c0,-0.984 -0.813,-2 -2,-2c-0.531,0 -0.994,0.193 -1.38,0.58l-7.958,7.958c-0.328,0.328 -0.662,0.733 -0.662,1.462s0.279,1.08 0.646,1.447001l7.974,7.973c0.386,0.386999 0.849,0.58 1.38,0.58c1.188,0 2,-1.016001 2,-2c0,-0.516001 -0.186,-0.986 -0.58,-1.379999l-4.62,-4.620001l19.2,0c1.104,0 2,-0.896 2,-2s-0.896,-2 -2,-2z" fill="#ffffff"/>
</svg>