<?xml version="1.0" ?><!DOCTYPE svg  PUBLIC '-//W3C//DTD SVG 1.1//EN'  'http://www.w3.org/Graphics/SVG/1.1/DTD/svg11.dtd'>
<svg enable-background="new 0 0 512 512" id="Layer_1" version="1.1" viewBox="0 0 512 512" xml:space="preserve" xmlns="http://www.w3.org/2000/svg" xmlns:xlink="http://www.w3.org/1999/xlink">
  <ellipse stroke="#000" ry="152.499997" rx="149.000006" id="svg_3" cy="178.499997" cx="358.500006" stroke-width="0" fill="#ffb000"/>
  <ellipse stroke="#000" ry="152.499997" rx="149.000006" id="svg_2" cy="178.499997" cx="153.500006" stroke-width="0" fill="#ffb000"/>
  <rect stroke="#000" transform="rotate(-45 253.75000000000006,321.25) " id="svg_4" height="226.87006" width="218.594415" y="207.814969" x="144.452796" stroke-opacity="null" stroke-width="0" fill="#ffb000"/>
  <path id="svg_1" fill="#6A6E7C" d="m256,489.100006c-6.699997,0 -13.199997,-2.699982 -17.800003,-7.399994l-194.999996,-196.800018c0,0 -0.100002,-0.100006 -0.100002,-0.100006c-27.799998,-29.199982 -43.099998,-67.299988 -43.099998,-107.299988c0,-10.199997 1,-20.5 3,-30.600006c0,-0.199997 0.1,-0.399994 0.1,-0.599991c14.699999,-71.5 78.099997,-123.400003 150.9,-123.400003c38.100006,0 73.899994,13.699999 102,38.699999c28,-25 63.899994,-38.699999 102,-38.699999c84.899994,0 154,69.400003 154,154.600016c0,42.399994 -16.700012,81.800003 -47,111.199997l-191.200012,193c-4.599976,4.699982 -11.099976,7.399994 -17.799988,7.399994zm-197.700001,-219l194.899998,196.800018c0.799988,0.799988 1.799988,1.199982 2.899979,1.199982s2.100006,-0.399994 2.800018,-1.199982l191.199982,-193.200012c0.100006,-0.100006 0.100006,-0.100006 0.200012,-0.200012c26.200012,-25.299988 40.700012,-59.499985 40.700012,-96.099991c0,-73.599991 -59.600006,-133.5 -132.899994,-133.5c-35.899994,0 -69.399994,14 -94.5,39.5c-2,2 -4.700012,3.200005 -7.5,3.200005c-2.800003,0 -5.5,-1.100006 -7.5,-3.200005c-25,-25.5 -58.5,-39.5 -94.5,-39.5c-62.800003,0 -117.500008,44.800003 -130.200006,106.400009c0,0.100006 0,0.199997 -0.1,0.300003c-1.799999,8.800003 -2.699999,17.799988 -2.699999,26.799988c0,34.599991 13.199999,67.499985 37.199999,92.699997z"/>
</svg>